<svg xmlns="http://www.w3.org/2000/svg" viewBox="0 0 539 330" role="img" aria-label="The word artetecha set in Pacifico v1.000 above the same word in Pacifico v3.001; the older cut is lighter and more slanted.">
<rect x="0.5" y="0.5" width="538" height="329" rx="16" fill="#f6f7f9" stroke="#e2e5ea"/>
<g transform="translate(30 30)" fill="#1f2833">
  <text x="0" y="15" font-family="ui-monospace,monospace" font-size="15" fill="#5b6470">Pacifico v1.000 — il taglio del 2011 (usato dal logo)</text>
  <g transform="translate(-2.99 111.77) scale(0.04675 -0.04675)"><path transform="translate(0.0 0.0)" d="M1174 245Q1151 213 1112.5 170Q1074 127 1026 88Q978 49 923 22Q868 -5 813 -5Q747 -5 703 37.5Q659 80 627 161Q603 133 568 104Q533 75 491.5 51.5Q450 28 405 13Q360 -2 315 -2Q267 -2 221.5 17.5Q176 37 141 73.5Q106 110 85 162.5Q64 215 64 281Q64 356 85 435Q106 514 150 606Q194 698 244.5 765Q295 832 355 882Q415 932 481.5 961.5Q548 991 617 991Q640 991 653 982Q666 973 674.5 961.5Q683 950 691 939Q699 928 711 923Q723 918 735.5 916.5Q748 915 761 915Q772 915 783.5 915.5Q795 916 806 916Q821 916 834 913Q847 910 857 900Q867 890 872.5 872Q878 854 878 823Q878 775 868 716.5Q858 658 846 596.5Q834 535 817 457Q800 379 800 324Q800 277 808.5 250.5Q817 224 845 224Q866 224 889 234.5Q912 245 935.5 262Q959 279 982.5 300.5Q1006 322 1027 345Q1076 399 1126 467ZM320 324Q320 299 323.5 275.5Q327 252 336 233.5Q345 215 360 203.5Q375 192 398 192Q435 192 465 224Q495 256 517 301Q539 346 552.5 394Q566 442 570 474L645 801Q604 801 565 780.5Q526 760 491.5 725Q457 690 428 645Q399 600 371 534Q343 468 331.5 418Q320 368 320 324Z"/><path transform="translate(970.0 0.0)" d="M128 209Q128 253 133 311.5Q138 370 146.5 435Q155 500 166.5 567.5Q178 635 196 711.5Q214 788 227 839Q240 890 253 923Q261 945 269 958Q277 971 287.5 978.5Q298 986 313.5 988.5Q329 991 352 991Q378 991 392.5 988.5Q407 986 414 976.5Q421 967 422.5 949Q424 931 424 900Q424 863 419 795Q414 727 416 676L427 676Q447 716 477 781Q507 846 540 889Q573 932 615 961.5Q657 991 712 991Q731 991 749 984.5Q767 978 780.5 966Q794 954 802 936.5Q810 919 810 897Q810 880 805 849.5Q800 819 789 770Q778 721 773 689.5Q768 658 768 637Q768 601 775 577Q782 553 793.5 538.5Q805 524 819.5 518Q834 512 850 512Q895 512 943 532Q991 552 1031 577Q1078 606 1123 643L1108 409Q1082 392 1049 371Q1016 350 978.5 331.5Q941 313 900.5 300.5Q860 288 818 288Q743 288 697 318.5Q651 349 624 398.5Q597 448 584 509.5Q571 571 563 634L547 634L368 135Q354 96 341.5 70.5Q329 45 316 29Q303 13 288 6.5Q273 0 255 0Q214 0 189 17.5Q164 35 150.5 64.5Q137 94 132.5 131.5Q128 169 128 209Z"/><path transform="translate(1832.0 0.0)" d="M960 224Q864 168 789 126Q714 84 655.5 56Q597 28 551.5 14Q506 0 469 0Q393 0 335 46Q277 92 238 178.5Q199 265 179.5 388Q160 511 160 665Q160 725 165 793Q170 861 179 928Q149 932 132.5 935.5Q116 939 97.5 942.5Q79 946 50.5 950Q22 954 -32 960Q-56 963 -69 971.5Q-82 980 -88 991.5Q-94 1003 -95 1015.5Q-96 1028 -96 1037Q-96 1057 -76.5 1067.5Q-57 1078 -26.5 1083Q4 1088 40.5 1088.5Q77 1089 110.5 1088Q144 1087 170.5 1086.5Q197 1086 207 1088Q234 1223 275.5 1349.5Q317 1476 368.5 1574.5Q420 1673 481 1732.5Q542 1792 609 1792Q652 1792 687.5 1768Q723 1744 748 1704Q773 1664 786.5 1610.5Q800 1557 800 1499Q800 1450 786 1395.5Q772 1341 748 1284.5Q724 1228 691.5 1170Q659 1112 623 1055Q632 1054 653 1054Q674 1054 701.5 1052.5Q729 1051 761 1049.5Q793 1048 823 1047Q853 1046 879 1045Q905 1044 922 1043Q942 1042 951 1023Q960 1004 960 975Q960 940 940 918Q920 896 896 896L512 896Q483 856 453.5 817.5Q424 779 399 748Q395 686 392 626Q391 600 390 572.5Q389 545 388 518Q387 491 386.5 466Q386 441 386 420Q386 366 396 329Q406 292 425 268.5Q444 245 471.5 234.5Q499 224 533 224Q554 224 585.5 234Q617 244 654.5 261.5Q692 279 733.5 303Q775 327 815.5 355.5Q856 384 893 415.5Q930 447 960 480ZM640 1490Q640 1501 638.5 1514.5Q637 1528 632 1540Q627 1552 616.5 1560Q606 1568 587 1568Q561 1568 534.5 1522Q508 1476 483.5 1404.5Q459 1333 437.5 1247Q416 1161 398 1080Q413 1078 428 1076.5Q443 1075 459 1073Q489 1124 521.5 1183.5Q554 1243 580 1300.5Q606 1358 623 1408Q640 1458 640 1490Z"/><path transform="translate(2586.0 0.0)" d="M466 0Q372 0 301.5 34Q231 68 184 125.5Q137 183 113.5 258.5Q90 334 90 417Q90 473 111 550.5Q132 628 154.5 688Q177 748 211 802.5Q245 857 290.5 898.5Q336 940 392.5 964.5Q449 989 518 989Q574 989 622 971Q670 953 705.5 920.5Q741 888 761 842Q781 796 781 739Q781 677 740.5 600Q700 523 646 468Q592 413 517.5 370Q443 327 356 303Q371 276 385.5 258Q400 240 415 230Q430 220 446.5 216Q463 212 482 212Q542 212 608.5 236Q675 260 738 296Q801 332 857 374.5Q913 417 952 455L1081 321Q993 230 894 160Q851 130 801.5 101Q752 72 697.5 49.5Q643 27 584.5 13.5Q526 0 466 0ZM333 470Q369 470 411.5 488.5Q454 507 490.5 536Q527 565 562 614Q597 663 597 695Q597 740 580.5 769Q564 798 540 798Q497 798 466.5 782Q436 766 415.5 740.5Q395 715 382.5 682.5Q370 650 353.5 602Q337 554 335 523Q333 492 333 470Z"/><path transform="translate(3340.0 0.0)" d="M960 224Q864 168 789 126Q714 84 655.5 56Q597 28 551.5 14Q506 0 469 0Q393 0 335 46Q277 92 238 178.5Q199 265 179.5 388Q160 511 160 665Q160 725 165 793Q170 861 179 928Q149 932 132.5 935.5Q116 939 97.5 942.5Q79 946 50.5 950Q22 954 -32 960Q-56 963 -69 971.5Q-82 980 -88 991.5Q-94 1003 -95 1015.5Q-96 1028 -96 1037Q-96 1057 -76.5 1067.5Q-57 1078 -26.5 1083Q4 1088 40.5 1088.5Q77 1089 110.5 1088Q144 1087 170.5 1086.5Q197 1086 207 1088Q234 1223 275.5 1349.5Q317 1476 368.5 1574.5Q420 1673 481 1732.5Q542 1792 609 1792Q652 1792 687.5 1768Q723 1744 748 1704Q773 1664 786.5 1610.5Q800 1557 800 1499Q800 1450 786 1395.5Q772 1341 748 1284.5Q724 1228 691.5 1170Q659 1112 623 1055Q632 1054 653 1054Q674 1054 701.5 1052.5Q729 1051 761 1049.5Q793 1048 823 1047Q853 1046 879 1045Q905 1044 922 1043Q942 1042 951 1023Q960 1004 960 975Q960 940 940 918Q920 896 896 896L512 896Q483 856 453.5 817.5Q424 779 399 748Q395 686 392 626Q391 600 390 572.5Q389 545 388 518Q387 491 386.5 466Q386 441 386 420Q386 366 396 329Q406 292 425 268.5Q444 245 471.5 234.5Q499 224 533 224Q554 224 585.5 234Q617 244 654.5 261.5Q692 279 733.5 303Q775 327 815.5 355.5Q856 384 893 415.5Q930 447 960 480ZM640 1490Q640 1501 638.5 1514.5Q637 1528 632 1540Q627 1552 616.5 1560Q606 1568 587 1568Q561 1568 534.5 1522Q508 1476 483.5 1404.5Q459 1333 437.5 1247Q416 1161 398 1080Q413 1078 428 1076.5Q443 1075 459 1073Q489 1124 521.5 1183.5Q554 1243 580 1300.5Q606 1358 623 1408Q640 1458 640 1490Z"/><path transform="translate(4094.0 0.0)" d="M466 0Q372 0 301.5 34Q231 68 184 125.5Q137 183 113.5 258.5Q90 334 90 417Q90 473 111 550.5Q132 628 154.5 688Q177 748 211 802.5Q245 857 290.5 898.5Q336 940 392.5 964.5Q449 989 518 989Q574 989 622 971Q670 953 705.5 920.5Q741 888 761 842Q781 796 781 739Q781 677 740.5 600Q700 523 646 468Q592 413 517.5 370Q443 327 356 303Q371 276 385.5 258Q400 240 415 230Q430 220 446.5 216Q463 212 482 212Q542 212 608.5 236Q675 260 738 296Q801 332 857 374.5Q913 417 952 455L1081 321Q993 230 894 160Q851 130 801.5 101Q752 72 697.5 49.5Q643 27 584.5 13.5Q526 0 466 0ZM333 470Q369 470 411.5 488.5Q454 507 490.5 536Q527 565 562 614Q597 663 597 695Q597 740 580.5 769Q564 798 540 798Q497 798 466.5 782Q436 766 415.5 740.5Q395 715 382.5 682.5Q370 650 353.5 602Q337 554 335 523Q333 492 333 470Z"/><path transform="translate(4848.0 0.0)" d="M437 0Q345 0 275.5 34Q206 68 159 125Q112 182 88 257Q64 332 64 413Q64 471 84 552Q104 633 127.5 693.5Q151 754 185.5 809Q220 864 265.5 905.5Q311 947 367 971.5Q423 996 490 996Q547 996 595.5 978.5Q644 961 678.5 930Q713 899 732.5 856.5Q752 814 752 765Q752 731 743 698Q734 665 708 620.5Q682 576 657.5 560Q633 544 602 544Q554 544 540 569Q517 608 526 638Q529 654 544 712Q546 720 545 748Q545 772 540 788Q535 804 518 804Q477 804 448 784.5Q419 765 398.5 733.5Q378 702 358 644.5Q338 587 329.5 548Q321 509 319 473.5Q317 438 317 414Q317 378 323.5 339Q330 300 349.5 267.5Q369 235 400 213.5Q431 192 480 192Q528 192 586 221.5Q644 251 702.5 296Q761 341 814 395Q867 449 905 497L974 381Q899 274 812 190Q775 154 731.5 120Q688 86 640.5 59.5Q593 33 541.5 16.5Q490 0 437 0Z"/><path transform="translate(5602.0 0.0)" d="M473 622Q514 676 565 738Q616 800 701.5 881Q787 962 841.5 997.5Q896 1033 944 1033Q956 1033 971 1028.5Q986 1024 999.5 1012Q1013 1000 1022 978.5Q1031 957 1031 923Q1031 855 1012 790.5Q993 726 940 634Q887 542 868.5 475Q850 408 850 335Q850 295 862 271Q874 247 893 247Q917 247 944 257Q971 267 998 283Q1025 299 1051 319.5Q1077 340 1100 362Q1155 413 1208 478L1225 212Q1207 198 1179.5 177Q1152 156 1118.5 132.5Q1085 109 1046 85Q1007 61 967.5 42.5Q928 24 888.5 12Q849 0 813 0Q758 0 717.5 29.5Q677 59 651 104.5Q625 150 612 204Q599 258 599 306Q599 338 607.5 377.5Q616 417 628.5 457Q641 497 656.5 535Q672 573 685.5 603Q699 633 709 652Q719 671 722 674L701 677Q684 666 643.5 621Q603 576 552 507.5Q501 439 446.5 353.5Q392 268 348 177Q326 132 312 98.5Q298 65 284.5 43.5Q271 22 255 11Q239 0 214 0Q181 0 162 19Q143 38 133 69.5Q123 101 120 141Q117 181 117 223Q117 290 118.5 398.5Q120 507 128 639Q136 771 151 917Q166 1063 193.5 1205.5Q221 1348 262.5 1477.5Q304 1607 363.5 1705.5Q423 1804 503 1862Q583 1920 687 1920Q741 1920 775.5 1904Q810 1888 830.5 1859Q851 1830 859 1789.5Q867 1749 867 1699Q867 1625 846 1535Q825 1445 790.5 1348Q756 1251 712 1151.5Q668 1052 622 958.5Q576 865 531.5 782Q487 699 453 636ZM562 1240Q621 1393 647.5 1498Q674 1603 674 1653Q674 1729 654 1729Q628 1729 577 1644Q526 1559 457 1397Q440 1342 425.5 1283Q411 1224 399.5 1165.5Q388 1107 378.5 1050.5Q369 994 362 943Q345 824 336 710Q363 773 395 847Q427 921 458 993.5Q489 1066 516.5 1130.5Q544 1195 562 1240Z"/><path transform="translate(6679.0 0.0)" d="M1174 245Q1151 213 1112.5 170Q1074 127 1026 88Q978 49 923 22Q868 -5 813 -5Q747 -5 703 37.5Q659 80 627 161Q603 133 568 104Q533 75 491.5 51.5Q450 28 405 13Q360 -2 315 -2Q267 -2 221.5 17.5Q176 37 141 73.5Q106 110 85 162.5Q64 215 64 281Q64 356 85 435Q106 514 150 606Q194 698 244.5 765Q295 832 355 882Q415 932 481.5 961.5Q548 991 617 991Q640 991 653 982Q666 973 674.5 961.5Q683 950 691 939Q699 928 711 923Q723 918 735.5 916.5Q748 915 761 915Q772 915 783.5 915.5Q795 916 806 916Q821 916 834 913Q847 910 857 900Q867 890 872.5 872Q878 854 878 823Q878 775 868 716.5Q858 658 846 596.5Q834 535 817 457Q800 379 800 324Q800 277 808.5 250.5Q817 224 845 224Q866 224 889 234.5Q912 245 935.5 262Q959 279 982.5 300.5Q1006 322 1027 345Q1076 399 1126 467ZM320 324Q320 299 323.5 275.5Q327 252 336 233.5Q345 215 360 203.5Q375 192 398 192Q435 192 465 224Q495 256 517 301Q539 346 552.5 394Q566 442 570 474L645 801Q604 801 565 780.5Q526 760 491.5 725Q457 690 428 645Q399 600 371 534Q343 468 331.5 418Q320 368 320 324Z"/></g>
  <text x="0" y="173" font-family="ui-monospace,monospace" font-size="15" fill="#5b6470">Pacifico v3.001 — il taglio attuale di Google Fonts</text>
  <g transform="translate(-3.33 269.52) scale(0.09524 -0.09524)"><path transform="translate(0.0 0.0)" d="M171 -5Q109 -5 72 40Q35 85 35 158Q35 238 72 309.5Q109 381 170.5 424.5Q232 468 301 468Q323 468 330.5 459.5Q338 451 343 429Q364 433 387 433Q436 433 436 398Q436 377 421 298Q398 183 398 138Q398 123 405.5 114Q413 105 425 105Q444 105 471 129.5Q498 154 544 209Q556 223 571 223Q584 223 591.5 211Q599 199 599 178Q599 138 580 116Q539 65 493 30Q447 -5 404 -5Q371 -5 343.5 17.5Q316 40 302 79Q250 -5 171 -5ZM207 96Q229 96 249 122Q269 148 278 191L315 375Q273 374 237.5 343.5Q202 313 181 263Q160 213 160 157Q160 126 172.5 111Q185 96 207 96Z"/><path transform="translate(470.0 0.0)" d="M452 329Q474 329 489.5 313.5Q505 298 505 275Q505 262 499 247Q483 210 454 185Q425 160 390 160Q362 160 342.5 180Q323 200 323 234Q323 253 325 275Q327 291 327 297Q327 305 323.5 309Q320 313 315 313Q301 313 277 279.5Q253 246 229 191Q205 136 190 75Q179 27 165 11Q151 -5 119 -5Q81 -5 65.5 35Q50 75 50 163Q50 293 87 410Q96 439 116.5 452.5Q137 466 174 466Q194 466 202 461Q210 456 210 442Q210 426 195 370Q185 330 179 300Q173 270 169 226Q202 312 243 366Q284 420 323 443Q362 466 394 466Q423 466 438.5 449.5Q454 433 454 401Q454 382 443 329L452 329Z"/><path transform="translate(965.0 0.0)" d="M494 223Q507 223 514.5 211Q522 199 522 178Q522 138 503 116Q460 63 409 29Q358 -5 292 -5Q88 -5 88 282Q88 326 91 371L52 371Q22 371 11.5 382Q1 393 1 417Q1 473 46 473L103 473Q120 583 155 674Q190 765 239.5 819Q289 873 346 873Q388 873 412 836Q436 799 436 743Q436 588 306 473L418 473Q434 473 441 466Q448 459 448 440Q448 371 335 371L213 371Q211 321 211 293Q211 189 235.5 147Q260 105 313 105Q356 105 389 131Q422 157 467 209Q479 223 494 223ZM319 777Q304 777 285.5 739.5Q267 702 250.5 635.5Q234 569 223 488Q282 539 311.5 602.5Q341 666 341 718Q341 777 319 777Z"/><path transform="translate(1358.0 0.0)" d="M494 223Q507 223 514.5 211Q522 199 522 178Q522 138 503 116Q466 71 398.5 33Q331 -5 254 -5Q149 -5 91 52Q33 109 33 208Q33 277 62 336.5Q91 396 142.5 431Q194 466 259 466Q317 466 352 431.5Q387 397 387 338Q387 269 337.5 219.5Q288 170 170 141Q195 95 265 95Q310 95 367.5 126.5Q425 158 467 209Q479 223 494 223ZM242 368Q205 368 179.5 325Q154 282 154 221L154 219Q213 233 247 261Q281 289 281 326Q281 345 270.5 356.5Q260 368 242 368Z"/><path transform="translate(1751.0 0.0)" d="M494 223Q507 223 514.5 211Q522 199 522 178Q522 138 503 116Q460 63 409 29Q358 -5 292 -5Q88 -5 88 282Q88 326 91 371L52 371Q22 371 11.5 382Q1 393 1 417Q1 473 46 473L103 473Q120 583 155 674Q190 765 239.5 819Q289 873 346 873Q388 873 412 836Q436 799 436 743Q436 588 306 473L418 473Q434 473 441 466Q448 459 448 440Q448 371 335 371L213 371Q211 321 211 293Q211 189 235.5 147Q260 105 313 105Q356 105 389 131Q422 157 467 209Q479 223 494 223ZM319 777Q304 777 285.5 739.5Q267 702 250.5 635.5Q234 569 223 488Q282 539 311.5 602.5Q341 666 341 718Q341 777 319 777Z"/><path transform="translate(2144.0 0.0)" d="M494 223Q507 223 514.5 211Q522 199 522 178Q522 138 503 116Q466 71 398.5 33Q331 -5 254 -5Q149 -5 91 52Q33 109 33 208Q33 277 62 336.5Q91 396 142.5 431Q194 466 259 466Q317 466 352 431.5Q387 397 387 338Q387 269 337.5 219.5Q288 170 170 141Q195 95 265 95Q310 95 367.5 126.5Q425 158 467 209Q479 223 494 223ZM242 368Q205 368 179.5 325Q154 282 154 221L154 219Q213 233 247 261Q281 289 281 326Q281 345 270.5 356.5Q260 368 242 368Z"/><path transform="translate(2537.0 0.0)" d="M239 -5Q141 -5 86.5 50.5Q32 106 32 197Q32 278 64 339Q96 400 147 433Q198 466 254 466Q309 466 339.5 433.5Q370 401 370 350Q370 308 351.5 279Q333 250 303 250Q284 250 272.5 259Q261 268 261 284Q261 291 263 300Q265 309 266 313Q271 328 271 341Q271 354 264.5 361Q258 368 246 368Q223 368 203 347.5Q183 327 171 292Q159 257 159 215Q159 99 260 99Q301 99 348.5 126.5Q396 154 442 209Q454 223 469 223Q482 223 489.5 211Q497 199 497 178Q497 140 478 116Q431 58 365.5 26.5Q300 -5 239 -5Z"/><path transform="translate(2905.0 0.0)" d="M603 223Q616 223 623.5 211Q631 199 631 178Q631 138 612 116Q566 63 517.5 29Q469 -5 407 -5Q356 -5 330 24.5Q304 54 304 110Q304 138 318 210Q331 273 331 297Q331 313 320 313Q307 313 283 279.5Q259 246 235 191Q211 136 196 75Q177 -5 102 -5Q72 -5 62.5 16.5Q53 38 53 94Q53 126 54 145L55 225Q55 379 86.5 546Q118 713 179.5 826.5Q241 940 327 940Q373 940 401.5 900.5Q430 861 430 798Q430 697 371 588.5Q312 480 179 335Q176 283 176 228Q209 313 249.5 366.5Q290 420 329.5 443Q369 466 402 466Q467 466 467 401Q467 362 445 260Q426 173 426 145Q426 105 455 105Q475 105 502.5 129.5Q530 154 576 209Q588 223 603 223ZM306 841Q288 841 266 789.5Q244 738 223.5 650.5Q203 563 190 460Q252 533 292.5 619Q333 705 333 775Q333 807 326 824Q319 841 306 841Z"/><path transform="translate(3407.0 0.0)" d="M163 -5Q106 -5 70.5 40Q35 85 35 158Q35 238 72 309.5Q109 381 170.5 424.5Q232 468 301 468Q323 468 330.5 459.5Q338 451 343 429Q362 433 385 433Q409 433 422 421Q435 409 435 387Q435 364 425 307Q414 246 408 190.5Q402 135 402 66Q402 28 386.5 11.5Q371 -5 336 -5Q302 -5 285.5 11.5Q269 28 269 65L270 81Q239 -5 163 -5ZM202 96Q230 96 253 135Q276 174 294 274L313 375Q272 374 237 343.5Q202 313 181 263Q160 213 160 157Q160 127 171.5 111.5Q183 96 202 96Z"/></g>
</g>
</svg>
