<svg xmlns="http://www.w3.org/2000/svg" viewBox="0 0 590 148" role="img" aria-label="Artetecha">
  <g transform="translate(0 6)">
    <rect x="6" y="14" width="88" height="88" rx="32" transform="rotate(12 50 58)" fill="#70787f"/>
    <rect x="60" y="44" width="58" height="58" rx="23" transform="rotate(12 89 73)" fill="#b1d14f"/>
    <rect x="100" y="50" width="27" height="27" rx="13" transform="rotate(12 113 63)" fill="#f0a800"/>
  </g>
  <!-- "artetecha" — Pacifico (SIL OFL), outlined to paths -->
  <g fill="var(--logo-script, #1c6398)" transform="translate(161.15 131.45) scale(0.110053 -0.110053)">
      <path transform="translate(0.0 0.0)" d="M171 -5Q109 -5 72 40Q35 85 35 158Q35 238 72 309.5Q109 381 170.5 424.5Q232 468 301 468Q323 468 330.5 459.5Q338 451 343 429Q364 433 387 433Q436 433 436 398Q436 377 421 298Q398 183 398 138Q398 123 405.5 114Q413 105 425 105Q444 105 471 129.5Q498 154 544 209Q556 223 571 223Q584 223 591.5 211Q599 199 599 178Q599 138 580 116Q539 65 493 30Q447 -5 404 -5Q371 -5 343.5 17.5Q316 40 302 79Q250 -5 171 -5ZM207 96Q229 96 249 122Q269 148 278 191L315 375Q273 374 237.5 343.5Q202 313 181 263Q160 213 160 157Q160 126 172.5 111Q185 96 207 96Z"/>
      <path transform="translate(470.0 0.0)" d="M452 329Q474 329 489.5 313.5Q505 298 505 275Q505 262 499 247Q483 210 454 185Q425 160 390 160Q362 160 342.5 180Q323 200 323 234Q323 253 325 275Q327 291 327 297Q327 305 323.5 309Q320 313 315 313Q301 313 277 279.5Q253 246 229 191Q205 136 190 75Q179 27 165 11Q151 -5 119 -5Q81 -5 65.5 35Q50 75 50 163Q50 293 87 410Q96 439 116.5 452.5Q137 466 174 466Q194 466 202 461Q210 456 210 442Q210 426 195 370Q185 330 179 300Q173 270 169 226Q202 312 243 366Q284 420 323 443Q362 466 394 466Q423 466 438.5 449.5Q454 433 454 401Q454 382 443 329L452 329Z"/>
      <path transform="translate(965.0 0.0)" d="M494 223Q507 223 514.5 211Q522 199 522 178Q522 138 503 116Q460 63 409 29Q358 -5 292 -5Q88 -5 88 282Q88 326 91 371L52 371Q22 371 11.5 382Q1 393 1 417Q1 473 46 473L103 473Q120 583 155 674Q190 765 239.5 819Q289 873 346 873Q388 873 412 836Q436 799 436 743Q436 588 306 473L418 473Q434 473 441 466Q448 459 448 440Q448 371 335 371L213 371Q211 321 211 293Q211 189 235.5 147Q260 105 313 105Q356 105 389 131Q422 157 467 209Q479 223 494 223ZM319 777Q304 777 285.5 739.5Q267 702 250.5 635.5Q234 569 223 488Q282 539 311.5 602.5Q341 666 341 718Q341 777 319 777Z"/>
      <path transform="translate(1358.0 0.0)" d="M494 223Q507 223 514.5 211Q522 199 522 178Q522 138 503 116Q466 71 398.5 33Q331 -5 254 -5Q149 -5 91 52Q33 109 33 208Q33 277 62 336.5Q91 396 142.5 431Q194 466 259 466Q317 466 352 431.5Q387 397 387 338Q387 269 337.5 219.5Q288 170 170 141Q195 95 265 95Q310 95 367.5 126.5Q425 158 467 209Q479 223 494 223ZM242 368Q205 368 179.5 325Q154 282 154 221L154 219Q213 233 247 261Q281 289 281 326Q281 345 270.5 356.5Q260 368 242 368Z"/>
      <path transform="translate(1751.0 0.0)" d="M494 223Q507 223 514.5 211Q522 199 522 178Q522 138 503 116Q460 63 409 29Q358 -5 292 -5Q88 -5 88 282Q88 326 91 371L52 371Q22 371 11.5 382Q1 393 1 417Q1 473 46 473L103 473Q120 583 155 674Q190 765 239.5 819Q289 873 346 873Q388 873 412 836Q436 799 436 743Q436 588 306 473L418 473Q434 473 441 466Q448 459 448 440Q448 371 335 371L213 371Q211 321 211 293Q211 189 235.5 147Q260 105 313 105Q356 105 389 131Q422 157 467 209Q479 223 494 223ZM319 777Q304 777 285.5 739.5Q267 702 250.5 635.5Q234 569 223 488Q282 539 311.5 602.5Q341 666 341 718Q341 777 319 777Z"/>
      <path transform="translate(2144.0 0.0)" d="M494 223Q507 223 514.5 211Q522 199 522 178Q522 138 503 116Q466 71 398.5 33Q331 -5 254 -5Q149 -5 91 52Q33 109 33 208Q33 277 62 336.5Q91 396 142.5 431Q194 466 259 466Q317 466 352 431.5Q387 397 387 338Q387 269 337.5 219.5Q288 170 170 141Q195 95 265 95Q310 95 367.5 126.5Q425 158 467 209Q479 223 494 223ZM242 368Q205 368 179.5 325Q154 282 154 221L154 219Q213 233 247 261Q281 289 281 326Q281 345 270.5 356.5Q260 368 242 368Z"/>
      <path transform="translate(2537.0 0.0)" d="M239 -5Q141 -5 86.5 50.5Q32 106 32 197Q32 278 64 339Q96 400 147 433Q198 466 254 466Q309 466 339.5 433.5Q370 401 370 350Q370 308 351.5 279Q333 250 303 250Q284 250 272.5 259Q261 268 261 284Q261 291 263 300Q265 309 266 313Q271 328 271 341Q271 354 264.5 361Q258 368 246 368Q223 368 203 347.5Q183 327 171 292Q159 257 159 215Q159 99 260 99Q301 99 348.5 126.5Q396 154 442 209Q454 223 469 223Q482 223 489.5 211Q497 199 497 178Q497 140 478 116Q431 58 365.5 26.5Q300 -5 239 -5Z"/>
      <path transform="translate(2905.0 0.0)" d="M603 223Q616 223 623.5 211Q631 199 631 178Q631 138 612 116Q566 63 517.5 29Q469 -5 407 -5Q356 -5 330 24.5Q304 54 304 110Q304 138 318 210Q331 273 331 297Q331 313 320 313Q307 313 283 279.5Q259 246 235 191Q211 136 196 75Q177 -5 102 -5Q72 -5 62.5 16.5Q53 38 53 94Q53 126 54 145L55 225Q55 379 86.5 546Q118 713 179.5 826.5Q241 940 327 940Q373 940 401.5 900.5Q430 861 430 798Q430 697 371 588.5Q312 480 179 335Q176 283 176 228Q209 313 249.5 366.5Q290 420 329.5 443Q369 466 402 466Q467 466 467 401Q467 362 445 260Q426 173 426 145Q426 105 455 105Q475 105 502.5 129.5Q530 154 576 209Q588 223 603 223ZM306 841Q288 841 266 789.5Q244 738 223.5 650.5Q203 563 190 460Q252 533 292.5 619Q333 705 333 775Q333 807 326 824Q319 841 306 841Z"/>
      <path transform="translate(3407.0 0.0)" d="M163 -5Q106 -5 70.5 40Q35 85 35 158Q35 238 72 309.5Q109 381 170.5 424.5Q232 468 301 468Q323 468 330.5 459.5Q338 451 343 429Q362 433 385 433Q409 433 422 421Q435 409 435 387Q435 364 425 307Q414 246 408 190.5Q402 135 402 66Q402 28 386.5 11.5Q371 -5 336 -5Q302 -5 285.5 11.5Q269 28 269 65L270 81Q239 -5 163 -5ZM202 96Q230 96 253 135Q276 174 294 274L313 375Q272 374 237 343.5Q202 313 181 263Q160 213 160 157Q160 127 171.5 111.5Q183 96 202 96Z"/>
  </g>
</svg>
